<?xml version="1.0" encoding="iso-8859-1"?>
<!-- Uploaded to: SVG Repo, www.svgrepo.com, Generator: SVG Repo Mixer Tools -->
<svg version="1.1" id="Layer_1" xmlns="http://www.w3.org/2000/svg" xmlns:xlink="http://www.w3.org/1999/xlink" 
	 viewBox="0 0 512 512" xml:space="preserve">
<polygon style="fill:#ABECEC;" points="449.362,40.851 449.362,117.106 366.058,160.681 416.681,40.851 "/>
<polygon style="fill:#EEEEEE;" points="449.362,117.106 449.362,503.83 416.681,503.83 362.213,310.468 416.681,117.106 "/>
<polygon style="fill:#D5F6F5;" points="416.681,40.851 416.681,160.681 62.638,117.106 62.638,40.851 "/>
<rect x="62.638" y="117.106" style="fill:#FFFFFF;" width="354.043" height="386.723"/>
<g>
	<path style="fill:#02ACAB;" d="M146.519,57.191V24.511c0-9.024-7.316-16.34-16.34-16.34c-9.024,0-16.34,7.316-16.34,16.34v32.681
		c0,9.024,7.316,16.34,16.34,16.34C139.203,73.532,146.519,66.216,146.519,57.191z"/>
	<path style="fill:#02ACAB;" d="M230.4,57.191V24.511c0-9.024-7.316-16.34-16.34-16.34c-9.024,0-16.34,7.316-16.34,16.34v32.681
		c0,9.024,7.316,16.34,16.34,16.34C223.084,73.532,230.4,66.216,230.4,57.191z"/>
	<path style="fill:#02ACAB;" d="M314.281,57.191V24.511c0-9.024-7.316-16.34-16.34-16.34c-9.024,0-16.34,7.316-16.34,16.34v32.681
		c0,9.024,7.316,16.34,16.34,16.34C306.965,73.532,314.281,66.216,314.281,57.191z"/>
	<path style="fill:#02ACAB;" d="M398.162,57.191V24.511c0-9.024-7.316-16.34-16.34-16.34s-16.34,7.316-16.34,16.34v32.681
		c0,9.024,7.316,16.34,16.34,16.34S398.162,66.216,398.162,57.191z"/>
</g>
<path d="M449.362,32.681h-18.519c-4.513,0-8.17,3.657-8.17,8.17s3.657,8.17,8.17,8.17h10.349V495.66
	c-50.588,0-319.875,0-370.383-0.001V49.021h34.86v8.17c0,13.515,10.996,24.511,24.511,24.511s24.511-10.996,24.511-24.511v-8.17
	h34.86v8.17c0,13.515,10.996,24.511,24.511,24.511c13.515,0,24.511-10.996,24.511-24.511v-8.17h34.86v8.17
	c0,13.515,10.996,24.511,24.511,24.511c13.515,0,24.511-10.996,24.511-24.511v-8.17h34.86v8.17
	c0,13.515,10.996,24.511,24.511,24.511c13.515,0,24.511-10.996,24.511-24.511V24.511C406.332,10.996,395.336,0,381.821,0
	c-13.515,0-24.511,10.996-24.511,24.511v8.17h-34.86v-8.17C322.451,10.996,311.455,0,297.94,0
	c-13.515,0-24.511,10.996-24.511,24.511v8.17h-34.86v-8.17C238.57,10.996,227.574,0,214.06,0c-13.515,0-24.511,10.996-24.511,24.511
	v8.17h-34.86v-8.17C154.689,10.996,143.693,0,130.179,0c-13.515,0-24.511,10.996-24.511,24.511v8.17h-43.03
	c-4.513,0-8.17,3.657-8.17,8.17v462.978c0,2.167,0.861,4.244,2.392,5.778c2.393,2.392,3.725,2.392,10.121,2.392L449.362,512
	c4.513,0,8.17-3.657,8.17-8.17V40.851C457.532,36.338,453.875,32.681,449.362,32.681z M373.651,24.511c0-4.506,3.665-8.17,8.17-8.17
	s8.17,3.665,8.17,8.17v32.681c0,4.506-3.665,8.17-8.17,8.17s-8.17-3.665-8.17-8.17V24.511z M289.77,24.511
	c0-4.506,3.665-8.17,8.17-8.17s8.17,3.665,8.17,8.17v32.681c0,4.506-3.665,8.17-8.17,8.17s-8.17-3.665-8.17-8.17V24.511z
	 M205.889,24.511c0-4.506,3.665-8.17,8.17-8.17s8.17,3.665,8.17,8.17v32.681c0,4.506-3.665,8.17-8.17,8.17s-8.17-3.665-8.17-8.17
	V24.511z M122.009,24.511c0-4.506,3.665-8.17,8.17-8.17c4.506,0,8.17,3.665,8.17,8.17v32.681c0,4.506-3.665,8.17-8.17,8.17
	c-4.506,0-8.17-3.665-8.17-8.17V24.511z"/>
<path d="M362.757,302.298H149.243c-4.513,0-8.17,3.657-8.17,8.17c0,4.513,3.657,8.17,8.17,8.17h213.515
	c4.513,0,8.17-3.657,8.17-8.17C370.928,305.955,367.271,302.298,362.757,302.298z"/>
<path d="M362.757,258.723H149.243c-4.513,0-8.17,3.657-8.17,8.17c0,4.513,3.657,8.17,8.17,8.17h213.515
	c4.513,0,8.17-3.657,8.17-8.17C370.928,262.38,367.271,258.723,362.757,258.723z"/>
<path d="M362.757,215.149H149.243c-4.513,0-8.17,3.657-8.17,8.17s3.657,8.17,8.17,8.17h213.515c4.513,0,8.17-3.657,8.17-8.17
	S367.271,215.149,362.757,215.149z"/>
<path d="M370.928,354.043c0-4.513-3.657-8.17-8.17-8.17H149.243c-4.513,0-8.17,3.657-8.17,8.17s3.657,8.17,8.17,8.17h213.515
	C367.271,362.213,370.928,358.556,370.928,354.043z"/>
<path d="M149.243,389.447c-4.513,0-8.17,3.657-8.17,8.17c0,4.513,3.657,8.17,8.17,8.17h131.813c4.513,0,8.17-3.657,8.17-8.17
	c0-4.513-3.657-8.17-8.17-8.17H149.243z"/>
<path d="M87.127,117.106c0,4.513,3.657,8.17,8.17,8.17h321.383c4.513,0,8.17-3.657,8.17-8.17s-3.657-8.17-8.17-8.17H95.297
	C90.785,108.936,87.127,112.593,87.127,117.106z"/>
</svg>